<?xml version="1.0" encoding="UTF-8"?>
<svg xmlns="http://www.w3.org/2000/svg" xmlns:xlink="http://www.w3.org/1999/xlink" width="30" height="30" viewBox="0 0 30 30"><defs><style>.a{fill:none;}.b{clip-path:url(#a);}.c{fill:#229e45;}.c,.d,.e,.f,.g{fill-rule:evenodd;}.d{fill:#f8e509;}.e{fill:#2b49a3;}.f{fill:#ffffef;}.g,.j{fill:#fff;}.h{fill:#309e3a;}.i{fill:#f7ffff;}</style><clipPath id="a"><rect class="a" width="30" height="30" rx="15" transform="translate(2830 892)"/></clipPath></defs><g class="b" transform="translate(-2830 -892)"><g transform="translate(2830 892)"><path class="c" d="M0,0H30V30H0Z"/><path class="d" d="M42.9,124.108l13.465-8.742L42.818,106.6,29.3,115.389l13.594,8.719Z" transform="translate(-27.583 -100.354)"/><path class="e" d="M178.535,167.334a5.7,5.7,0,1,1-5.687-5.519A5.7,5.7,0,0,1,178.535,167.334Z" transform="translate(-157.353 -152.334)"/><path class="f" d="M181.276,227.026l-.176-.105-.182.094.041-.205-.141-.146.2-.023.094-.188.088.193.2.035-.152.141m3.85,1.172-.176-.105-.187.094.041-.205-.141-.146.205-.023.094-.187.082.193.2.035-.146.141m-1.617-1.342-.152-.088-.158.076.035-.176-.117-.129.17-.018.082-.158.07.164.176.029-.129.117m3.879-.375-.152-.088-.152.076.035-.17-.117-.123.17-.023.076-.152.076.158.17.029-.129.117m-3.9-.979-.176-.105-.182.094.041-.205-.141-.146.2-.023.094-.182.088.188.2.035-.152.141m-4.67-1.559-.176-.105-.176.094.035-.205-.141-.146.205-.023.094-.187.082.193.2.035-.146.141m.592,2.549-.176-.1-.182.088.041-.2-.141-.152.2-.023.094-.176.088.182.2.041-.152.135m5.895-3.006-.152-.088-.164.076.035-.176-.117-.135.176-.018.082-.164.076.17.176.029-.135.123m-.293,1.711-.141-.076-.123.059.023-.141-.094-.1.141-.018.064-.129.059.135.141.023-.105.094m-6.352,2.256-.117-.07-.123.059.023-.135-.094-.1.141-.012.059-.117.059.117.135.029-.1.094m8.941.674-.1-.047-.1.041.023-.1-.076-.076.111-.012.053-.088.041.094.111.018-.082.07" transform="translate(-167.664 -208.616)"/><path class="f" d="M178.511,286.275l-.117-.07-.123.059.029-.135-.1-.1.135-.012.064-.117.059.117.135.029-.1.094" transform="translate(-167.759 -269.148)"/><path class="f" d="M178.511,258.033l-.117-.07-.123.059.029-.135-.1-.1.135-.012.064-.117.059.117.135.029-.1.094m1.887.135-.117-.07-.117.059.023-.135-.094-.1.135-.012.059-.123.059.123.135.029-.1.094m-.217.762-.117-.07-.117.059.023-.135-.094-.1.135-.018.059-.117.059.117.135.029-.1.094m3.908-1-.117-.07-.123.059.023-.135-.094-.1.135-.012.064-.123.059.123.129.023-.1.094m-1.119.141-.117-.07-.123.059.029-.135-.094-.1.135-.012.059-.123.059.123.135.023-.1.094m-3.076-.258-.07-.041-.076.035.012-.088-.059-.059.088-.012.041-.076.029.082.088.012-.059.059m7.488,2.033-.117-.064-.123.059.029-.135-.094-.1.135-.018.059-.117.059.117.135.029-.1.094m-.937.258-.094-.059-.1.059.023-.117-.082-.082.117-.012.047-.1.047.1.117.023-.088.076m.469.105-.094-.059-.094.053.018-.105-.07-.076.105-.012.047-.094.041.094.105.018-.076.076m1.3-1.02-.088-.053-.094.047.023-.1-.07-.076.1-.012.047-.088.041.094.1.018-.076.07m-1.717,1.863-.117-.064-.117.059.029-.129-.094-.088.129-.018.064-.111.059.117.123.023-.094.082m.023.639-.105-.059-.105.053.023-.129-.082-.088.117-.018.059-.111.047.117.117.023-.088.082m-.85-1.02-.088-.053-.094.047.023-.105-.07-.07.1-.012.047-.094.041.094.1.018-.076.07m-.791.105-.088-.053-.094.047.023-.105-.07-.07.1-.012.047-.094.041.094.1.018-.07.07m-1.365-1.1-.088-.053-.094.047.023-.1-.07-.076.1-.012.047-.088.041.094.1.018-.076.064m.17,2.549-.076-.041-.076.041.018-.088-.059-.059.082-.018.041-.076.035.082.088.012-.064.059m-2.062-3.867-.176-.1-.182.088.041-.2-.141-.152.2-.023.094-.182.088.187.2.035-.152.141" transform="translate(-167.759 -240.906)"/><path class="g" d="M181.881,216.046a5.568,5.568,0,0,0,.258-.885,13.957,13.957,0,0,0-10.664-3.744,5.564,5.564,0,0,0-.375.932,13.652,13.652,0,0,1,10.781,3.691Z" transform="translate(-161.075 -198.996)"/><path class="h" d="M223.732,217.859l.105.059a.152.152,0,0,0-.012.105.132.132,0,0,0,.059.07.17.17,0,0,0,.094.035.078.078,0,0,0,.059-.035.048.048,0,0,0,.006-.041l-.018-.047-.07-.076a.346.346,0,0,1-.082-.135.164.164,0,0,1,.094-.193.17.17,0,0,1,.1-.012.311.311,0,0,1,.117.053.352.352,0,0,1,.117.141.176.176,0,0,1-.029.152l-.105-.064a.14.14,0,0,0,.012-.082.138.138,0,0,0-.059-.059.128.128,0,0,0-.082-.029.043.043,0,0,0-.041.059c0,.023.029.059.07.1l.088.117a.176.176,0,0,1-.012.188.182.182,0,0,1-.082.064.176.176,0,0,1-.111.012.351.351,0,0,1-.123-.059.27.27,0,0,1-.117-.146.215.215,0,0,1,.023-.176Zm-.516-.334.117.059a.152.152,0,0,0-.012.094.124.124,0,0,0,.059.076.119.119,0,0,0,.094.023.064.064,0,0,0,.059-.035.059.059,0,0,0,.006-.035.061.061,0,0,0-.023-.047l-.07-.076a.352.352,0,0,1-.088-.129.159.159,0,0,1,.088-.2.176.176,0,0,1,.1-.012.233.233,0,0,1,.117.047.253.253,0,0,1,.117.135.176.176,0,0,1-.018.152l-.111-.064a.1.1,0,0,0,.012-.076.191.191,0,0,0-.146-.088.044.044,0,0,0-.035.064c0,.018.029.053.07.1a.632.632,0,0,1,.094.105.176.176,0,0,1-.006.193.187.187,0,0,1-.187.082.357.357,0,0,1-.129-.053.276.276,0,0,1-.123-.141A.24.24,0,0,1,223.217,217.525Zm-.633-.176.328-.527.393.234-.059.094-.281-.176-.076.117.27.164-.059.094-.264-.164-.088.146.293.176-.053.094-.4-.246Zm-.926-.756.053-.094.234.129-.111.217a.422.422,0,0,1-.281-.035.34.34,0,0,1-.129-.117.264.264,0,0,1-.047-.152.331.331,0,0,1,.047-.164.358.358,0,0,1,.117-.135.245.245,0,0,1,.158-.053.4.4,0,0,1,.146.041.293.293,0,0,1,.135.129.24.24,0,0,1,.018.158l-.123-.035a.129.129,0,0,0-.012-.088.146.146,0,0,0-.07-.064.17.17,0,0,0-.141-.018.282.282,0,0,0-.146.293.152.152,0,0,0,.094.105l.076.023h.076l.035-.07Zm-4.031-1,.094-.621.188.029.047.439.176-.41.182.029-.088.621-.117-.018.07-.486-.193.469-.117-.018-.053-.51-.07.492Zm-.627-.076.059-.621.457.041-.006.105-.34-.029-.012.135.311.029-.006.105-.311-.029-.018.176.346.029-.012.105Z" transform="translate(-204.285 -202.308)"/><g transform="translate(10.627 12.503)"><path class="h" d="M181.366,213.7a.423.423,0,0,1,.029-.158l.059-.082.088-.059a.34.34,0,0,1,.135-.018.293.293,0,0,1,.217.094.308.308,0,0,1,.076.234.318.318,0,0,1-.088.234.3.3,0,0,1-.516-.24Z" transform="translate(-181.364 -213.385)"/><path class="i" d="M183.506,215.411a.229.229,0,0,0,.047.164.137.137,0,0,0,.117.059.176.176,0,0,0,.129-.053.281.281,0,0,0,.053-.158.22.22,0,0,0-.047-.164.158.158,0,0,0-.117-.059.156.156,0,0,0-.129.053.244.244,0,0,0-.059.158Z" transform="translate(-183.375 -215.094)"/></g><g transform="translate(11.367 12.521)"><path class="h" d="M194,214.327l.006-.627h.264a.4.4,0,0,1,.146.023.118.118,0,0,1,.07.059.249.249,0,0,1,.029.1.2.2,0,0,1-.041.117.241.241,0,0,1-.129.059.21.21,0,0,1,.07.047l.07.105.076.117h-.152l-.088-.135a.939.939,0,0,0-.07-.094.094.094,0,0,0-.035-.023.2.2,0,0,0-.059-.012h-.029v.264Z" transform="translate(-194 -213.7)"/><path class="j" d="M196.2,215.752h.094a.475.475,0,0,0,.117,0l.029-.029a.067.067,0,0,0,.018-.047.072.072,0,0,0-.018-.053.076.076,0,0,0-.047-.023h-.188v.152Z" transform="translate(-196.071 -215.489)"/></g><g transform="translate(12.047 12.551)"><path class="h" d="M205.635,214.2l.229.012a.444.444,0,0,1,.117.018.234.234,0,0,1,.088.059.293.293,0,0,1,.059.111.548.548,0,0,1,.012.146.27.27,0,0,1-.187.287h-.117l-.234-.006Z" transform="translate(-205.6 -214.2)"/><path class="j" d="M207.918,216.1l-.018.41.094.012h.076l.053-.029c.018-.012.023-.029.035-.059l.018-.117-.006-.105c-.012-.029-.018-.047-.035-.059a.117.117,0,0,0-.059-.035.565.565,0,0,0-.1-.012h-.059Z" transform="translate(-207.765 -215.989)"/></g><g transform="translate(15.146 13.061)"><path class="h" d="M258.5,223.509l.146-.609.193.047a.7.7,0,0,1,.147.047.149.149,0,0,1,.07.076.193.193,0,0,1,.006.129.2.2,0,0,1-.176.152.7.7,0,0,1-.129-.023l-.082-.018-.059.229Z" transform="translate(-258.5 -222.9)"/><path class="j" d="M261.941,225.2l-.041.176.07.012a.229.229,0,0,0,.1.012.082.082,0,0,0,.07-.059l-.006-.064a.088.088,0,0,0-.047-.041l-.088-.023Z" transform="translate(-261.701 -225.065)"/></g><g transform="translate(15.727 13.254)"><path class="h" d="M268.4,226.792l.205-.592.252.088a.468.468,0,0,1,.129.059.221.221,0,0,1,.053.088.148.148,0,0,1-.012.1.139.139,0,0,1-.076.094.176.176,0,0,1-.135.018l.047.07.035.117.029.141-.141-.047-.041-.158a.847.847,0,0,0-.035-.111.094.094,0,0,0-.023-.035.2.2,0,0,0-.059-.029l-.023-.006-.088.246-.117-.041Z" transform="translate(-268.4 -226.2)"/><path class="j" d="M272.4,228.752l.088.029.111.029a.049.049,0,0,0,.041-.012l.029-.041V228.7a.076.076,0,0,0-.035-.035l-.088-.029-.094-.035Z" transform="translate(-272.166 -228.459)"/></g><g transform="translate(16.437 13.582)"><path class="h" d="M280.553,232.04a.4.4,0,0,1,.076-.146.2.2,0,0,1,.076-.064.246.246,0,0,1,.094-.029.372.372,0,0,1,.135.018.293.293,0,0,1,.188.146.311.311,0,0,1,.006.252.328.328,0,0,1-.146.205.338.338,0,0,1-.422-.135A.322.322,0,0,1,280.553,232.04Z" transform="translate(-280.532 -231.8)"/><path class="j" d="M282.788,233.834a.26.26,0,0,0,0,.164.184.184,0,0,0,.105.094.165.165,0,0,0,.129-.018.243.243,0,0,0,.1-.141.278.278,0,0,0,0-.17.17.17,0,0,0-.24-.07A.238.238,0,0,0,282.788,233.834Z" transform="translate(-282.644 -233.558)"/></g><g transform="translate(17.678 14.139)"><path class="h" d="M301.7,241.857l.287-.557.234.117a.47.47,0,0,1,.117.082.2.2,0,0,1,.041.088.127.127,0,0,1-.023.1.161.161,0,0,1-.088.088.215.215,0,0,1-.135-.006.221.221,0,0,1,.035.076l.018.123.012.146-.135-.07-.018-.164-.018-.117a.094.094,0,0,0-.023-.035.2.2,0,0,0-.053-.035l-.023-.012-.117.234-.111-.059Z" transform="translate(-301.7 -241.3)"/><path class="j" d="M306.4,244.041l.082.041.105.047a.049.049,0,0,0,.041-.012.088.088,0,0,0,.047-.088.076.076,0,0,0-.035-.041q-.037-.025-.076-.047l-.088-.041Z" transform="translate(-306.125 -243.748)"/></g><g transform="translate(19.924 15.675)"><path class="h" d="M340.1,267.686a.281.281,0,0,1,.117-.117.293.293,0,0,1,.094-.041.246.246,0,0,1,.094,0,.255.255,0,0,1,.129.059.293.293,0,0,1,.135.193.352.352,0,0,1-.064.24.328.328,0,0,1-.205.152.327.327,0,0,1-.363-.246.322.322,0,0,1,.059-.24Z" transform="translate(-340.034 -267.523)"/><path class="j" d="M342.229,269.593a.272.272,0,0,0-.047.164.176.176,0,0,0,.076.117.158.158,0,0,0,.129.023.235.235,0,0,0,.135-.111.2.2,0,0,0,.047-.158.158.158,0,0,0-.07-.117.141.141,0,0,0-.135-.023.236.236,0,0,0-.129.105Z" transform="translate(-342.055 -269.366)"/></g><path class="h" d="M246.4,221.845l.1-.445.328.076-.018.076-.234-.059-.023.1.217.053-.018.076-.217-.059-.029.123.246.059-.018.076Z" transform="translate(-231.962 -208.427)"/></g></g></svg>