<svg id="Blog_icon" xmlns="http://www.w3.org/2000/svg" width="24" height="24" viewBox="0 0 24 24">
  <g id="Iconly_Bold_Category" data-name="Iconly/Bold/Category" transform="translate(3 2.963)">
    <g id="Category" transform="translate(2 1.751)">
      <path id="Category-2" data-name="Category" d="M9.856,14a1.784,1.784,0,0,1-1.779-1.792V9.822A1.78,1.78,0,0,1,9.856,8.029h2.366A1.784,1.784,0,0,1,14,9.822v2.386A1.788,1.788,0,0,1,12.222,14ZM1.778,14A1.788,1.788,0,0,1,0,12.208V9.822A1.784,1.784,0,0,1,1.778,8.029H4.144A1.78,1.78,0,0,1,5.922,9.822v2.386A1.784,1.784,0,0,1,4.144,14ZM9.856,5.971A1.78,1.78,0,0,1,8.078,4.179V1.793A1.784,1.784,0,0,1,9.856,0h2.366A1.788,1.788,0,0,1,14,1.793V4.179a1.783,1.783,0,0,1-1.778,1.792Zm-8.079,0A1.784,1.784,0,0,1,0,4.179V1.793A1.788,1.788,0,0,1,1.778,0H4.144A1.784,1.784,0,0,1,5.922,1.793V4.179A1.779,1.779,0,0,1,4.144,5.971Z" transform="translate(0 0.286)" fill="#545f7e"/>
    </g>
  </g>
  <rect id="Rectangle_21681" data-name="Rectangle 21681" width="24" height="24" fill="none"/>
</svg>
