<svg id="Help_icon" xmlns="http://www.w3.org/2000/svg" width="24" height="24" viewBox="0 0 24 24">
  <path id="question" d="M9.553,15.5a1.466,1.466,0,0,1-.993-.333,1.273,1.273,0,0,1-.427-1.02,1.333,1.333,0,0,1,.413-.98,1.38,1.38,0,0,1,1.006-.4,1.366,1.366,0,0,1,1.393,1.38,1.286,1.286,0,0,1-.42,1.02A1.426,1.426,0,0,1,9.553,15.5ZM5,5.365a3.333,3.333,0,0,1,.567-1.78A4.346,4.346,0,0,1,7.233,2.093,5.266,5.266,0,0,1,9.779,1.5a5.512,5.512,0,0,1,2.386.493,3.859,3.859,0,0,1,1.6,1.333,3.259,3.259,0,0,1,.567,1.84,2.853,2.853,0,0,1-.32,1.38,4.439,4.439,0,0,1-.767,1.02c-.293.287-.5.5-1.266,1.173-.213.193-.507.467-.667.607a2.42,2.42,0,0,0-.287.4,2,2,0,0,0-.14.36c-.04.12-.087.333-.16.667a1.033,1.033,0,0,1-1.06.946,1.126,1.126,0,0,1-.82-.313,1.226,1.226,0,0,1-.327-.933,2.759,2.759,0,0,1,.247-1.226A3.933,3.933,0,0,1,9.373,8.2a5.652,5.652,0,0,1,.913-.926q.6-.52.86-.78a2.939,2.939,0,0,0,.453-.587,1.446,1.446,0,0,0,.18-.707A1.5,1.5,0,0,0,11.279,4a2.16,2.16,0,0,0-1.486-.487,2.2,2.2,0,0,0-1.573.667,2.993,2.993,0,0,0-.76,1.333A1.239,1.239,0,0,1,6.24,6.5a1.18,1.18,0,0,1-.88-.367A1.1,1.1,0,0,1,5,5.365Z" transform="translate(2 3.502)" fill="#545f7e"/>
  <rect id="Rectangle_21682" data-name="Rectangle 21682" width="24" height="24" fill="none"/>
</svg>
