<svg id="Explore_icon" xmlns="http://www.w3.org/2000/svg" width="24" height="24" viewBox="0 0 24 24">
  <g id="Iconly_Bold_Discovery" data-name="Iconly/Bold/Discovery" transform="translate(3 3)">
    <g id="Discovery" transform="translate(2 2)">
      <path id="Discovery-2" data-name="Discovery" d="M7,14A7,7,0,0,1,2.048,2.051a7,7,0,1,1,9.9,9.9A6.956,6.956,0,0,1,7,14ZM9.4,4.283a.321.321,0,0,0-.1.015L5.719,5.418a.468.468,0,0,0-.308.308L4.291,9.317a.3.3,0,0,0,.045.275.315.315,0,0,0,.253.132.306.306,0,0,0,.094-.015l3.57-1.12a.451.451,0,0,0,.308-.308L9.7,4.7a.318.318,0,0,0-.046-.286A.312.312,0,0,0,9.4,4.283Z" transform="translate(0 0)" fill="#545f7e"/>
    </g>
  </g>
  <rect id="Rectangle_21680" data-name="Rectangle 21680" width="24" height="24" fill="none"/>
</svg>
