<svg id="Logo_icon" xmlns="http://www.w3.org/2000/svg" width="24" height="24" viewBox="0 0 24 24">
  <g id="acorn" transform="translate(2.441 3.02)">
    <path id="Path_9122" data-name="Path 9122" d="M12.51,3.61H10.453v-.7a.894.894,0,1,0-1.788,0v.7H6.609a1.975,1.975,0,0,0-1.459.614,2.144,2.144,0,0,0-.59,1.519v.119a.618.618,0,0,0,.6.63h8.79a.618.618,0,0,0,.6-.63V5.744a2.144,2.144,0,0,0-.59-1.519A1.975,1.975,0,0,0,12.51,3.61Z" transform="translate(0 0)" fill="#fff"/>
    <path id="Path_9123" data-name="Path 9123" d="M14.211,12.972a26.48,26.48,0,0,0-.14-3.162H5.534a22.463,22.463,0,0,0-.12,3.162,4.79,4.79,0,0,0,3.155,4.407,2.994,2.994,0,0,1,1.243.958,2.947,2.947,0,0,1,1.237-.951A4.769,4.769,0,0,0,14.211,12.972Z" transform="translate(-0.253 -2.36)" fill="#fff"/>
  </g>
  <rect id="Rectangle_21675" data-name="Rectangle 21675" width="24" height="24" fill="none"/>
</svg>
