<svg id="Mockup_icon" xmlns="http://www.w3.org/2000/svg" width="24" height="24" viewBox="0 0 24 24">
  <g id="t-shirt" transform="translate(-15.328 5)">
    <g id="Group_14017" data-name="Group 14017" transform="translate(21.328 0)">
      <g id="Group_14016" data-name="Group 14016">
        <path id="Path_15813" data-name="Path 15813" d="M288.287,213.323h-.292v1.75h.292a.292.292,0,0,0,.292-.292v-1.167A.292.292,0,0,0,288.287,213.323Z" transform="translate(-281.199 -207.49)" fill="#fff"/>
        <path id="Path_15814" data-name="Path 15814" d="M202.953,213.323a.292.292,0,0,0-.292.292v.875h.583v-.875A.292.292,0,0,0,202.953,213.323Z" transform="translate(-198.04 -207.49)" fill="#fff"/>
        <path id="Path_15815" data-name="Path 15815" d="M33.324,6.369a19.8,19.8,0,0,0-1.133-4.489A5.238,5.238,0,0,0,29.6.015a.257.257,0,0,0-.277.072l0,0a4.917,4.917,0,0,1-1.989.5,4.917,4.917,0,0,1-1.989-.5l0,0A.257.257,0,0,0,25.06.015a5.238,5.238,0,0,0-2.6,1.865,19.8,19.8,0,0,0-1.133,4.489.3.3,0,0,0,.147.309A3.386,3.386,0,0,0,22.964,7a3.737,3.737,0,0,0,.545-.04v6.165a.3.3,0,0,0,.121.243c.036.026.919.632,3.7.632s3.661-.606,3.7-.632a.3.3,0,0,0,.121-.243V6.959a3.71,3.71,0,0,0,.545.04,3.386,3.386,0,0,0,1.486-.322A.3.3,0,0,0,33.324,6.369ZM27.055,7.875a.273.273,0,1,1-.545,0V7.583h-.545v.292a.273.273,0,1,1-.545,0V6.125a.82.82,0,1,1,1.636,0v1.75ZM25.761.888a6.637,6.637,0,0,0,1.567.278A6.637,6.637,0,0,0,28.9.888a1.948,1.948,0,0,1-1.567.861A1.948,1.948,0,0,1,25.761.888Zm3.476,6.4a.849.849,0,0,1-.818.875h-.545a.283.283,0,0,1-.273-.292V5.541a.283.283,0,0,1,.273-.292h.545a.849.849,0,0,1,.818.875Z" transform="translate(-21.328 0)" fill="#fff"/>
      </g>
    </g>
  </g>
  <rect id="Rectangle_21676" data-name="Rectangle 21676" width="24" height="24" fill="none"/>
</svg>
