<svg id="Website_icon" xmlns="http://www.w3.org/2000/svg" width="24" height="24" viewBox="0 0 24 24">
  <path id="Union_934" data-name="Union 934" d="M-1827.976,8262.992a1.042,1.042,0,0,1-1.01-1.067v-7.432h14v7.432a1.042,1.042,0,0,1-1.01,1.067Zm.317-6.14v3.781a.888.888,0,0,0,.885.889h4.2a.888.888,0,0,0,.885-.889v-3.781a.887.887,0,0,0-.885-.889h-4.2A.887.887,0,0,0-1827.66,8256.853Zm6.857,3.672a.333.333,0,0,0,.332.333h3.76a.333.333,0,0,0,.332-.333.333.333,0,0,0-.332-.335h-3.76A.333.333,0,0,0-1820.8,8260.524Zm0-1.781a.335.335,0,0,0,.332.335h3.76a.335.335,0,0,0,.332-.335.335.335,0,0,0-.332-.335h-3.76A.335.335,0,0,0-1820.8,8258.743Zm0-1.78a.333.333,0,0,0,.332.335h3.76a.333.333,0,0,0,.332-.335.334.334,0,0,0-.332-.333h-3.76A.334.334,0,0,0-1820.8,8256.963Zm-5.972,4a.332.332,0,0,1-.332-.333v-3.781a.333.333,0,0,1,.332-.334h4.2a.333.333,0,0,1,.332.334v3.781a.332.332,0,0,1-.332.333Zm11.788-7.109h0Zm0,0h-14V8252a1.015,1.015,0,0,1,1.01-1.017H-1816a1.015,1.015,0,0,1,1.01,1.017Zm-9.038-1.44a.439.439,0,0,0,.439.44.439.439,0,0,0,.439-.44.44.44,0,0,0-.439-.439A.44.44,0,0,0-1824.025,8252.417Zm-1.865,0a.439.439,0,0,0,.439.44.44.44,0,0,0,.439-.44.441.441,0,0,0-.439-.439A.44.44,0,0,0-1825.889,8252.417Zm-1.784,0a.439.439,0,0,0,.439.44.439.439,0,0,0,.438-.44.44.44,0,0,0-.438-.439A.44.44,0,0,0-1827.673,8252.417Z" transform="translate(1833.986 -8244.983)" fill="#fff"/>
  <rect id="Rectangle_21674" data-name="Rectangle 21674" width="24" height="24" fill="none"/>
</svg>
