<svg id="Arrow_outline_icon" xmlns="http://www.w3.org/2000/svg" width="24" height="24" viewBox="0 0 24 24">
  <rect id="Rectangle_21226" data-name="Rectangle 21226" width="24" height="24" fill="none"/>
  <path id="Union_938" data-name="Union 938" d="M6312,12935.864H6312l-.023-.007-.006,0-.013,0v0h-.006a.923.923,0,0,1-.341-.211l0,0-5.334-5.279a.887.887,0,0,1-.27-.639.9.9,0,0,1,.273-.644.919.919,0,0,1,1.188-.084l.013.01.075.064s.01.007.013.014l3.776,3.733V12921.9a.916.916,0,0,1,1.821-.123v.016l.006.091v10.922l3.776-3.733a.909.909,0,0,1,1.379,1.178l-.01.014-.065.074-.013.013-5.334,5.279a.916.916,0,0,1-.646.267A.94.94,0,0,1,6312,12935.864Z" transform="translate(-12917.25 6324.25) rotate(-90)" fill="#3271E6"/>
</svg>
