<svg xmlns="http://www.w3.org/2000/svg" xmlns:xlink="http://www.w3.org/1999/xlink" width="1320" height="350" viewBox="0 0 1320 350">
  <defs>
    <clipPath id="clip-path">
      <rect id="BACKGROUND" width="1320" height="350" transform="translate(60)" fill="#f8f7fe"/>
    </clipPath>
  </defs>
  <g id="Blue_overlay" data-name="Blue overlay" transform="translate(-60)" clip-path="url(#clip-path)">
    <g id="Group_83336" data-name="Group 83336" transform="translate(862.517 -52.115)">
      <g id="Polygon_10" data-name="Polygon 10" transform="translate(416.164 15.052) rotate(50)" fill="none">
        <path d="M418.315,0a50,50,0,0,1,43.457,25.272L582.451,237.348a50,50,0,0,1,0,49.457L461.772,498.882a50,50,0,0,1-43.457,25.272H178.207a50,50,0,0,1-43.457-25.272L14.071,286.805a50,50,0,0,1,0-49.457L134.75,25.272A50,50,0,0,1,178.207,0Z" stroke="none"/>
        <path d="M 178.20703125 -6.103515625e-05 C 160.2318725585938 -6.103515625e-05 143.6400451660156 9.648681640625 134.7501220703125 25.27151489257812 L 14.07135009765625 237.3482055664062 C 5.34716796875 252.6796569824219 5.34716796875 271.4736633300781 14.07135009765625 286.8051147460938 L 134.7501220703125 498.8817443847656 C 143.6400451660156 514.504638671875 160.2318725585938 524.1532592773438 178.20703125 524.1532592773438 L 418.3148803710938 524.1532592773438 C 436.2899780273438 524.1532592773438 452.8818054199219 514.504638671875 461.7717895507812 498.8817443847656 L 582.4505615234375 286.8051147460938 C 591.1746215820312 271.4736633300781 591.1746215820312 252.6796569824219 582.4505615234375 237.3482055664062 L 461.7717895507812 25.27151489257812 C 452.8818054199219 9.648681640625 436.2900390625 -6.103515625e-05 418.3148803710938 -6.103515625e-05 L 178.20703125 -6.103515625e-05 M 178.20703125 -1.00006103515625 L 418.3148803710938 -1.00006103515625 C 427.3108825683594 -1.00006103515625 436.1763305664062 1.390380859375 443.9529418945312 5.9127197265625 C 451.7295532226562 10.43505859375 458.1918029785156 16.95819091796875 462.6409606933594 24.7769775390625 L 583.3197021484375 236.8536682128906 C 587.685791015625 244.5265197753906 589.99365234375 253.2485046386719 589.99365234375 262.07666015625 C 589.99365234375 270.9048156738281 587.685791015625 279.6268310546875 583.3197021484375 287.2996826171875 L 462.6409606933594 499.3762817382812 C 458.1918029785156 507.1950378417969 451.7295532226562 513.7182006835938 443.9529418945312 518.2406005859375 C 436.1763305664062 522.7628784179688 427.310791015625 525.1532592773438 418.3148803710938 525.1532592773438 L 178.20703125 525.1532592773438 C 169.2110290527344 525.1532592773438 160.3454895019531 522.7628784179688 152.5688781738281 518.2406005859375 C 144.7922668457031 513.7182006835938 138.3301086425781 507.1950378417969 133.8809509277344 499.3762817382812 L 13.20220947265625 287.2996826171875 C 8.8360595703125 279.6268310546875 6.5281982421875 270.9048156738281 6.5281982421875 262.07666015625 C 6.5281982421875 253.2485046386719 8.8360595703125 244.5265197753906 13.20220947265625 236.8536682128906 L 133.8809509277344 24.7769775390625 C 138.3301086425781 16.95819091796875 144.7922668457031 10.43505859375 152.5688781738281 5.9127197265625 C 160.3455810546875 1.390380859375 169.2110290527344 -1.00006103515625 178.20703125 -1.00006103515625 Z" stroke="none" fill="#cfe0fe"/>
      </g>
      <g id="Polygon_12" data-name="Polygon 12" transform="translate(416.036 0) rotate(50)" fill="none">
        <path d="M436.075,0A50,50,0,0,1,479.5,25.209L605.985,246.758a50,50,0,0,1,0,49.581L479.5,517.888A50,50,0,0,1,436.075,543.1H184.063a50,50,0,0,1-43.421-25.209L14.154,296.339a50,50,0,0,1,0-49.581L140.642,25.209A50,50,0,0,1,184.063,0Z" stroke="none"/>
        <path d="M 184.0634460449219 0 C 166.1139221191406 0 149.5415344238281 9.6214599609375 140.6419982910156 25.20941162109375 L 14.15362548828125 246.7580261230469 C 5.38232421875 262.1212463378906 5.38232421875 280.9758605957031 14.15362548828125 296.339111328125 L 140.6419067382812 517.8876953125 C 149.5415344238281 533.4756469726562 166.1138305664062 543.0971069335938 184.0633850097656 543.0971069335938 L 436.0753784179688 543.0971069335938 C 454.0249938964844 543.0971069335938 470.5972900390625 533.4756469726562 479.496826171875 517.8876342773438 L 605.9851684570312 296.339111328125 C 614.756591796875 280.9758605957031 614.756591796875 262.1212463378906 605.9851684570312 246.7580261230469 L 479.496826171875 25.20941162109375 C 470.5972900390625 9.6214599609375 454.0249938964844 0 436.0753784179688 0 L 184.0634460449219 0 M 184.0634460449219 -1 L 436.0753784179688 -1 C 445.05859375 -1 453.9132080078125 1.38409423828125 461.6820068359375 5.8944091796875 C 469.4507446289062 10.40478515625 475.911376953125 16.91229248046875 480.3652954101562 24.71356201171875 L 606.8536376953125 246.2621765136719 C 611.243408203125 253.9510192871094 613.5637817382812 262.6948547363281 613.5637817382812 271.5485534667969 C 613.5637817382812 280.4022521972656 611.243408203125 289.1460876464844 606.8536376953125 296.8349609375 L 480.3652954101562 518.3834838867188 C 475.911376953125 526.1846923828125 469.4507446289062 532.6923217773438 461.6820068359375 537.2026977539062 C 453.9132080078125 541.7130126953125 445.05859375 544.0971069335938 436.0753784179688 544.0971069335938 L 184.0633850097656 544.0971069335938 C 175.0802307128906 544.0971069335938 166.2256164550781 541.7130126953125 158.4568481445312 537.2026977539062 C 150.6880798339844 532.6923217773438 144.2274475097656 526.184814453125 139.7734680175781 518.383544921875 L 13.28515625 296.8349609375 C 8.89544677734375 289.1460876464844 6.57513427734375 280.4022521972656 6.57513427734375 271.5485534667969 C 6.57513427734375 262.6948547363281 8.89544677734375 253.9510192871094 13.28515625 246.2621765136719 L 139.7735290527344 24.71356201171875 C 144.2274475097656 16.91229248046875 150.6880798339844 10.40478515625 158.4569091796875 5.8944091796875 C 166.2256774902344 1.38409423828125 175.0802917480469 -1 184.0634460449219 -1 Z" stroke="none" fill="#cfe0fe"/>
      </g>
    </g>
    <g id="Group_83337" data-name="Group 83337" transform="translate(-214.768 -387.116)">
      <g id="Polygon_10-2" data-name="Polygon 10" transform="translate(416.164 15.052) rotate(50)" fill="none">
        <path d="M418.315,0a50,50,0,0,1,43.457,25.272L582.451,237.348a50,50,0,0,1,0,49.457L461.772,498.882a50,50,0,0,1-43.457,25.272H178.207a50,50,0,0,1-43.457-25.272L14.071,286.805a50,50,0,0,1,0-49.457L134.75,25.272A50,50,0,0,1,178.207,0Z" stroke="none"/>
        <path d="M 178.20703125 -6.103515625e-05 C 160.2318725585938 -6.103515625e-05 143.6400451660156 9.648681640625 134.7501220703125 25.27151489257812 L 14.07135009765625 237.3482055664062 C 5.34716796875 252.6796569824219 5.34716796875 271.4736633300781 14.07135009765625 286.8051147460938 L 134.7501220703125 498.8817443847656 C 143.6400451660156 514.504638671875 160.2318725585938 524.1532592773438 178.20703125 524.1532592773438 L 418.3148803710938 524.1532592773438 C 436.2899780273438 524.1532592773438 452.8818054199219 514.504638671875 461.7717895507812 498.8817443847656 L 582.4505615234375 286.8051147460938 C 591.1746215820312 271.4736633300781 591.1746215820312 252.6796569824219 582.4505615234375 237.3482055664062 L 461.7717895507812 25.27151489257812 C 452.8818054199219 9.648681640625 436.2900390625 -6.103515625e-05 418.3148803710938 -6.103515625e-05 L 178.20703125 -6.103515625e-05 M 178.20703125 -1.00006103515625 L 418.3148803710938 -1.00006103515625 C 427.3108825683594 -1.00006103515625 436.1763305664062 1.390380859375 443.9529418945312 5.9127197265625 C 451.7295532226562 10.43505859375 458.1918029785156 16.95819091796875 462.6409606933594 24.7769775390625 L 583.3197021484375 236.8536682128906 C 587.685791015625 244.5265197753906 589.99365234375 253.2485046386719 589.99365234375 262.07666015625 C 589.99365234375 270.9048156738281 587.685791015625 279.6268310546875 583.3197021484375 287.2996826171875 L 462.6409606933594 499.3762817382812 C 458.1918029785156 507.1950378417969 451.7295532226562 513.7182006835938 443.9529418945312 518.2406005859375 C 436.1763305664062 522.7628784179688 427.310791015625 525.1532592773438 418.3148803710938 525.1532592773438 L 178.20703125 525.1532592773438 C 169.2110290527344 525.1532592773438 160.3454895019531 522.7628784179688 152.5688781738281 518.2406005859375 C 144.7922668457031 513.7182006835938 138.3301086425781 507.1950378417969 133.8809509277344 499.3762817382812 L 13.20220947265625 287.2996826171875 C 8.8360595703125 279.6268310546875 6.5281982421875 270.9048156738281 6.5281982421875 262.07666015625 C 6.5281982421875 253.2485046386719 8.8360595703125 244.5265197753906 13.20220947265625 236.8536682128906 L 133.8809509277344 24.7769775390625 C 138.3301086425781 16.95819091796875 144.7922668457031 10.43505859375 152.5688781738281 5.9127197265625 C 160.3455810546875 1.390380859375 169.2110290527344 -1.00006103515625 178.20703125 -1.00006103515625 Z" stroke="none" fill="#cfe0fe"/>
      </g>
      <g id="Polygon_12-2" data-name="Polygon 12" transform="translate(416.036 0) rotate(50)" fill="none">
        <path d="M436.075,0A50,50,0,0,1,479.5,25.209L605.985,246.758a50,50,0,0,1,0,49.581L479.5,517.888A50,50,0,0,1,436.075,543.1H184.063a50,50,0,0,1-43.421-25.209L14.154,296.339a50,50,0,0,1,0-49.581L140.642,25.209A50,50,0,0,1,184.063,0Z" stroke="none"/>
        <path d="M 184.0634460449219 0 C 166.1139221191406 0 149.5415344238281 9.6214599609375 140.6419982910156 25.20941162109375 L 14.15362548828125 246.7580261230469 C 5.38232421875 262.1212463378906 5.38232421875 280.9758605957031 14.15362548828125 296.339111328125 L 140.6419067382812 517.8876953125 C 149.5415344238281 533.4756469726562 166.1138305664062 543.0971069335938 184.0633850097656 543.0971069335938 L 436.0753784179688 543.0971069335938 C 454.0249938964844 543.0971069335938 470.5972900390625 533.4756469726562 479.496826171875 517.8876342773438 L 605.9851684570312 296.339111328125 C 614.756591796875 280.9758605957031 614.756591796875 262.1212463378906 605.9851684570312 246.7580261230469 L 479.496826171875 25.20941162109375 C 470.5972900390625 9.6214599609375 454.0249938964844 0 436.0753784179688 0 L 184.0634460449219 0 M 184.0634460449219 -1 L 436.0753784179688 -1 C 445.05859375 -1 453.9132080078125 1.38409423828125 461.6820068359375 5.8944091796875 C 469.4507446289062 10.40478515625 475.911376953125 16.91229248046875 480.3652954101562 24.71356201171875 L 606.8536376953125 246.2621765136719 C 611.243408203125 253.9510192871094 613.5637817382812 262.6948547363281 613.5637817382812 271.5485534667969 C 613.5637817382812 280.4022521972656 611.243408203125 289.1460876464844 606.8536376953125 296.8349609375 L 480.3652954101562 518.3834838867188 C 475.911376953125 526.1846923828125 469.4507446289062 532.6923217773438 461.6820068359375 537.2026977539062 C 453.9132080078125 541.7130126953125 445.05859375 544.0971069335938 436.0753784179688 544.0971069335938 L 184.0633850097656 544.0971069335938 C 175.0802307128906 544.0971069335938 166.2256164550781 541.7130126953125 158.4568481445312 537.2026977539062 C 150.6880798339844 532.6923217773438 144.2274475097656 526.184814453125 139.7734680175781 518.383544921875 L 13.28515625 296.8349609375 C 8.89544677734375 289.1460876464844 6.57513427734375 280.4022521972656 6.57513427734375 271.5485534667969 C 6.57513427734375 262.6948547363281 8.89544677734375 253.9510192871094 13.28515625 246.2621765136719 L 139.7735290527344 24.71356201171875 C 144.2274475097656 16.91229248046875 150.6880798339844 10.40478515625 158.4569091796875 5.8944091796875 C 166.2256774902344 1.38409423828125 175.0802917480469 -1 184.0634460449219 -1 Z" stroke="none" fill="#cfe0fe"/>
      </g>
    </g>
  </g>
</svg>
