<svg xmlns="http://www.w3.org/2000/svg" xmlns:xlink="http://www.w3.org/1999/xlink" width="170" height="122" viewBox="0 0 170 122">
  <defs>
    <clipPath id="clip-path">
      <rect id="Rectangle_22145" data-name="Rectangle 22145" width="170" height="122" transform="translate(2034 164)" fill="none"/>
    </clipPath>
    <filter id="Path_26585" x="-5.146" y="-1.878" width="165.075" height="129.432" filterUnits="userSpaceOnUse">
      <feOffset dx="3" dy="3" input="SourceAlpha"/>
      <feGaussianBlur stdDeviation="5" result="blur"/>
      <feFlood flood-color="#387dff" flood-opacity="0.302"/>
      <feComposite operator="in" in2="blur"/>
      <feComposite in="SourceGraphic"/>
    </filter>
    <filter id="Path_26585-2" x="-5.146" y="-1.878" width="165.075" height="129.432" filterUnits="userSpaceOnUse">
      <feOffset dx="1" dy="1" input="SourceAlpha"/>
      <feGaussianBlur stdDeviation="3" result="blur-2"/>
      <feFlood flood-color="#3271e6" flood-opacity="0.2" result="color"/>
      <feComposite operator="out" in="SourceGraphic" in2="blur-2"/>
      <feComposite operator="in" in="color"/>
      <feComposite operator="in" in2="SourceGraphic"/>
    </filter>
    <linearGradient id="linear-gradient" x1="0.5" x2="0.5" y2="1" gradientUnits="objectBoundingBox">
      <stop offset="0" stop-color="#ffc1cf"/>
      <stop offset="0.522" stop-color="#f77d98"/>
      <stop offset="1" stop-color="#ea78ba"/>
    </linearGradient>
    <linearGradient id="linear-gradient-3" x1="0.5" x2="0.5" y2="1" gradientUnits="objectBoundingBox">
      <stop offset="0" stop-color="#9fbcfb"/>
      <stop offset="1" stop-color="#65a0fc"/>
    </linearGradient>
    <linearGradient id="linear-gradient-4" x1="0.055" y1="-0.039" x2="0.98" y2="1.048" xlink:href="#linear-gradient-3"/>
    <filter id="Path_26587">
      <feOffset dx="-3" dy="-3" input="SourceAlpha"/>
      <feGaussianBlur stdDeviation="3" result="blur-3"/>
      <feFlood flood-color="#3271e6" flood-opacity="0.502" result="color-2"/>
      <feComposite operator="out" in="SourceGraphic" in2="blur-3"/>
      <feComposite operator="in" in="color-2"/>
      <feComposite operator="in" in2="SourceGraphic"/>
    </filter>
    <filter id="Path_26588" x="30.486" y="37.681" width="101.229" height="61.762" filterUnits="userSpaceOnUse">
      <feOffset dx="2" dy="2" input="SourceAlpha"/>
      <feGaussianBlur stdDeviation="1" result="blur-4"/>
      <feFlood flood-color="#387dff" flood-opacity="0.2"/>
      <feComposite operator="in" in2="blur-4"/>
      <feComposite in="SourceGraphic"/>
    </filter>
    <filter id="Path_26588-2" x="30.486" y="37.681" width="101.229" height="61.762" filterUnits="userSpaceOnUse">
      <feOffset dx="2" dy="2" input="SourceAlpha"/>
      <feGaussianBlur stdDeviation="2" result="blur-5"/>
      <feFlood flood-color="#fff" flood-opacity="0.502" result="color-3"/>
      <feComposite operator="out" in="SourceGraphic" in2="blur-5"/>
      <feComposite operator="in" in="color-3"/>
      <feComposite operator="in" in2="SourceGraphic"/>
    </filter>
    <linearGradient id="linear-gradient-6" x1="0.029" x2="0.978" y2="1" gradientUnits="objectBoundingBox">
      <stop offset="0" stop-color="#fff"/>
      <stop offset="1" stop-color="#c0d2f5"/>
    </linearGradient>
    <filter id="Path_26589" x="24.289" y="44.759" width="101.229" height="61.762" filterUnits="userSpaceOnUse">
      <feOffset dx="2" dy="2" input="SourceAlpha"/>
      <feGaussianBlur stdDeviation="1" result="blur-6"/>
      <feFlood flood-color="#387dff" flood-opacity="0.2"/>
      <feComposite operator="in" in2="blur-6"/>
      <feComposite in="SourceGraphic"/>
    </filter>
    <filter id="Path_26589-2" x="24.289" y="44.759" width="101.229" height="61.762" filterUnits="userSpaceOnUse">
      <feOffset dx="2" dy="2" input="SourceAlpha"/>
      <feGaussianBlur stdDeviation="2" result="blur-7"/>
      <feFlood flood-color="#fff" result="color-4"/>
      <feComposite operator="out" in="SourceGraphic" in2="blur-7"/>
      <feComposite operator="in" in="color-4"/>
      <feComposite operator="in" in2="SourceGraphic"/>
    </filter>
    <linearGradient id="linear-gradient-9" x1="1.134" y1="-0.179" x2="0.5" y2="1" gradientUnits="objectBoundingBox">
      <stop offset="0" stop-color="#fec7a7"/>
      <stop offset="1" stop-color="#ef9573"/>
    </linearGradient>
    <filter id="Path_26580">
      <feOffset dx="3" dy="3" input="SourceAlpha"/>
      <feGaussianBlur stdDeviation="1.5" result="blur-8"/>
      <feFlood flood-color="#fff" flood-opacity="0.502" result="color-5"/>
      <feComposite operator="out" in="SourceGraphic" in2="blur-8"/>
      <feComposite operator="in" in="color-5"/>
      <feComposite operator="in" in2="SourceGraphic"/>
    </filter>
    <linearGradient id="linear-gradient-10" x1="0.5" x2="0.5" y2="1" gradientUnits="objectBoundingBox">
      <stop offset="0" stop-color="#fff"/>
      <stop offset="1" stop-color="#f4ddd1"/>
    </linearGradient>
    <filter id="Path_26581" x="118.694" y="79.321" width="33.47" height="9.164" filterUnits="userSpaceOnUse">
      <feOffset dy="1" input="SourceAlpha"/>
      <feGaussianBlur stdDeviation="1.5" result="blur-9"/>
      <feFlood flood-color="#dfeafd" result="color-6"/>
      <feComposite operator="out" in="SourceGraphic" in2="blur-9"/>
      <feComposite operator="in" in="color-6"/>
      <feComposite operator="in" in2="SourceGraphic"/>
    </filter>
    <filter id="Path_26582" x="119.785" y="90.959" width="21.244" height="7.875" filterUnits="userSpaceOnUse">
      <feOffset dy="1" input="SourceAlpha"/>
      <feGaussianBlur stdDeviation="1.5" result="blur-10"/>
      <feFlood flood-color="#dfeafd" result="color-7"/>
      <feComposite operator="out" in="SourceGraphic" in2="blur-10"/>
      <feComposite operator="in" in="color-7"/>
      <feComposite operator="in" in2="SourceGraphic"/>
    </filter>
    <filter id="Path_26583" x="67.446" y="67.106" width="62.866" height="62.866" filterUnits="userSpaceOnUse">
      <feOffset dx="-6" dy="6" input="SourceAlpha"/>
      <feGaussianBlur stdDeviation="6" result="blur-11"/>
      <feFlood flood-color="#de5c44" flood-opacity="0.302"/>
      <feComposite operator="in" in2="blur-11"/>
      <feComposite in="SourceGraphic"/>
    </filter>
  </defs>
  <g id="Header_Left_illustration" transform="translate(-2034 -164)" clip-path="url(#clip-path)">
    <g id="Header_Left_illustration-2" data-name="Header_Left_illustration" transform="translate(2040.85 174.145)">
      <g id="Illustration_editor" transform="translate(0 15.293) rotate(-7)">
        <g data-type="innerShadowGroup">
          <g transform="matrix(0.99, 0.12, -0.12, 0.99, -3.7, -26.08)" filter="url(#Path_26585)">
            <path id="Path_26585-3" data-name="Path 26585" d="M10.618,0,115,.082a10.611,10.611,0,0,1,10.632,10.567l.049,63.55A10.572,10.572,0,0,1,115.07,84.749l-104.387-.08A10.611,10.611,0,0,1,.051,74.1L0,10.553A10.572,10.572,0,0,1,10.618,0Z" transform="translate(6.85 25.44) rotate(-7)" fill="#fff"/>
          </g>
          <g transform="matrix(0.99, 0.12, -0.12, 0.99, -3.7, -26.08)" filter="url(#Path_26585-2)">
            <path id="Path_26585-4" data-name="Path 26585" d="M10.618,0,115,.082a10.611,10.611,0,0,1,10.632,10.567l.049,63.55A10.572,10.572,0,0,1,115.07,84.749l-104.387-.08A10.611,10.611,0,0,1,.051,74.1L0,10.553A10.572,10.572,0,0,1,10.618,0Z" transform="translate(6.85 25.44) rotate(-7)" fill="#fff"/>
          </g>
        </g>
        <rect id="Rectangle_22137" data-name="Rectangle 22137" width="10.78" height="10.78" rx="5.39" transform="translate(7.23 5.404)" fill="url(#linear-gradient)"/>
        <rect id="Rectangle_22138" data-name="Rectangle 22138" width="10.78" height="10.78" rx="5.39" transform="translate(22.599 5.41)" fill="url(#linear-gradient)"/>
        <path id="Path_26586" data-name="Path 26586" d="M5.423,0,75.03.054a5.392,5.392,0,1,1,.008,10.785L5.431,10.786A5.392,5.392,0,1,1,5.423,0Z" transform="translate(39.78 5.42)" fill="url(#linear-gradient-3)"/>
        <g data-type="innerShadowGroup">
          <path id="Path_26587-2" data-name="Path 26587" d="M0,0,125.643.1l.04,51.578a10.572,10.572,0,0,1-10.616,10.551l-104.4-.08A10.611,10.611,0,0,1,.04,51.578Z" transform="translate(0.004 22.524)" fill="url(#linear-gradient-4)"/>
          <g transform="matrix(0.99, 0.12, -0.12, 0.99, -3.7, -26.08)" filter="url(#Path_26587)">
            <path id="Path_26587-3" data-name="Path 26587" d="M0,0,125.643.1l.04,51.578a10.572,10.572,0,0,1-10.616,10.551l-104.4-.08A10.611,10.611,0,0,1,.04,51.578Z" transform="translate(9.6 47.79) rotate(-7)" fill="#fff"/>
          </g>
        </g>
        <g data-type="innerShadowGroup">
          <g transform="matrix(0.99, 0.12, -0.12, 0.99, -3.7, -26.08)" filter="url(#Path_26588)">
            <path id="Path_26588-3" data-name="Path 26588" d="M10.618,0,79.76.055A10.611,10.611,0,0,1,90.393,10.622l.018,23.91A10.572,10.572,0,0,1,79.8,45.082l-69.143-.053A10.611,10.611,0,0,1,.02,34.462L0,10.553A10.572,10.572,0,0,1,10.618,0Z" transform="translate(31.48 49.7) rotate(-7)" fill="url(#linear-gradient)"/>
          </g>
          <g transform="matrix(0.99, 0.12, -0.12, 0.99, -3.7, -26.08)" filter="url(#Path_26588-2)">
            <path id="Path_26588-4" data-name="Path 26588" d="M10.618,0,79.76.055A10.611,10.611,0,0,1,90.393,10.622l.018,23.91A10.572,10.572,0,0,1,79.8,45.082l-69.143-.053A10.611,10.611,0,0,1,.02,34.462L0,10.553A10.572,10.572,0,0,1,10.618,0Z" transform="translate(31.48 49.7) rotate(-7)" fill="#fff"/>
          </g>
        </g>
        <g data-type="innerShadowGroup">
          <g transform="matrix(0.99, 0.12, -0.12, 0.99, -3.7, -26.08)" filter="url(#Path_26589)">
            <path id="Path_26589-3" data-name="Path 26589" d="M10.618,0,79.76.055A10.611,10.611,0,0,1,90.393,10.622l.018,23.91A10.572,10.572,0,0,1,79.8,45.082l-69.143-.053A10.611,10.611,0,0,1,.02,34.462L0,10.553A10.572,10.572,0,0,1,10.618,0Z" transform="translate(25.29 56.77) rotate(-7)" fill="url(#linear-gradient-6)"/>
          </g>
          <g transform="matrix(0.99, 0.12, -0.12, 0.99, -3.7, -26.08)" filter="url(#Path_26589-2)">
            <path id="Path_26589-4" data-name="Path 26589" d="M10.618,0,79.76.055A10.611,10.611,0,0,1,90.393,10.622l.018,23.91A10.572,10.572,0,0,1,79.8,45.082l-69.143-.053A10.611,10.611,0,0,1,.02,34.462L0,10.553A10.572,10.572,0,0,1,10.618,0Z" transform="translate(25.29 56.77) rotate(-7)" fill="#fff"/>
          </g>
        </g>
        <path id="Path_26590" data-name="Path 26590" d="M3.576,0,54.1.039a3.556,3.556,0,1,1,.005,7.113L3.582,7.113A3.556,3.556,0,1,1,3.576,0Z" transform="translate(24.304 46.509)" fill="url(#linear-gradient-3)"/>
        <path id="Path_26591" data-name="Path 26591" d="M3.582,0,25.468.017a3.562,3.562,0,1,1,.005,7.123L3.587,7.124A3.562,3.562,0,1,1,3.582,0Z" transform="translate(24.61 58.862)" fill="url(#linear-gradient-3)"/>
      </g>
      <g id="Illustration_element" transform="matrix(0.995, -0.105, 0.105, 0.995, 76.265, 66.167)">
        <g data-type="innerShadowGroup">
          <path id="Path_26580-2" data-name="Path 26580" d="M17.966,0,61.092.017A17.912,17.912,0,1,1,61.1,35.841l-43.126-.015A17.912,17.912,0,1,1,17.966,0Z" transform="translate(0 0)" fill="url(#linear-gradient-9)"/>
          <g transform="matrix(0.99, 0.1, -0.1, 0.99, -74.68, -84.58)" filter="url(#Path_26580)">
            <path id="Path_26580-3" data-name="Path 26580" d="M17.966,0,61.092.017A17.912,17.912,0,1,1,61.1,35.841l-43.126-.015A17.912,17.912,0,1,1,17.966,0Z" transform="matrix(0.99, -0.1, 0.1, 0.99, 83.12, 76.31)" fill="#fff"/>
          </g>
        </g>
        <g data-type="innerShadowGroup">
          <path id="Path_26581-2" data-name="Path 26581" d="M2.875,0l27.3.009a2.866,2.866,0,1,1,0,5.732l-27.3-.009A2.866,2.866,0,1,1,2.875,0Z" transform="translate(34.708 10.147)" fill="url(#linear-gradient-10)"/>
          <g transform="matrix(0.99, 0.1, -0.1, 0.99, -74.68, -84.58)" filter="url(#Path_26581)">
            <path id="Path_26581-3" data-name="Path 26581" d="M2.875,0l27.3.009a2.866,2.866,0,1,1,0,5.732l-27.3-.009A2.866,2.866,0,1,1,2.875,0Z" transform="translate(118.69 82.77) rotate(-6)" fill="#fff"/>
          </g>
        </g>
        <g data-type="innerShadowGroup">
          <path id="Path_26582-2" data-name="Path 26582" d="M2.875,0,17.882.006a2.866,2.866,0,1,1,0,5.732L2.877,5.732A2.866,2.866,0,1,1,2.875,0Z" transform="translate(34.711 20.557)" fill="url(#linear-gradient-10)"/>
          <g transform="matrix(0.99, 0.1, -0.1, 0.99, -74.68, -84.58)" filter="url(#Path_26582)">
            <path id="Path_26582-3" data-name="Path 26582" d="M2.875,0,17.882.006a2.866,2.866,0,1,1,0,5.732L2.877,5.732A2.866,2.866,0,1,1,2.875,0Z" transform="translate(119.78 93.13) rotate(-6)" fill="#fff"/>
          </g>
        </g>
        <g transform="matrix(0.99, 0.1, -0.1, 0.99, -74.68, -84.58)" filter="url(#Path_26583)">
          <path id="Path_26583-2" data-name="Path 26583" d="M9.512-.007A9.506,9.506,0,1,1-.007,9.514,9.467,9.467,0,0,1,9.512-.007Z" transform="matrix(-0.68, -0.73, 0.73, -0.68, 104.41, 105.96)" opacity="0.999" fill="url(#linear-gradient-10)"/>
        </g>
      </g>
    </g>
  </g>
</svg>
