<svg xmlns="http://www.w3.org/2000/svg" xmlns:xlink="http://www.w3.org/1999/xlink" width="120" height="135" viewBox="0 0 120 135">
  <defs>
    <clipPath id="clip-path">
      <rect id="Rectangle_22146" data-name="Rectangle 22146" width="120" height="135" transform="translate(2367 184)" fill="#fff" stroke="#707070" stroke-width="1"/>
    </clipPath>
    <linearGradient id="linear-gradient" x1="0.5" x2="0.518" y2="1.005" gradientUnits="objectBoundingBox">
      <stop offset="0" stop-color="#fec7a7"/>
      <stop offset="1" stop-color="#ef9573"/>
    </linearGradient>
    <filter id="Path_26584" x="-5.438" y="-2.438" width="111.55" height="111.55" filterUnits="userSpaceOnUse">
      <feOffset dx="3" dy="3" input="SourceAlpha"/>
      <feGaussianBlur stdDeviation="3" result="blur"/>
      <feFlood flood-color="#fff" flood-opacity="0.902" result="color"/>
      <feComposite operator="out" in="SourceGraphic" in2="blur"/>
      <feComposite operator="in" in="color"/>
      <feComposite operator="in" in2="SourceGraphic"/>
    </filter>
    <linearGradient id="linear-gradient-2" x1="0.189" y1="0.053" x2="0.5" y2="1" gradientUnits="objectBoundingBox">
      <stop offset="0" stop-color="#fff"/>
      <stop offset="1" stop-color="#f4ddd1"/>
    </linearGradient>
    <filter id="play" x="3.792" y="16.882" width="80.606" height="83.957" filterUnits="userSpaceOnUse">
      <feOffset dx="-12" dy="6" input="SourceAlpha"/>
      <feGaussianBlur stdDeviation="5" result="blur-2"/>
      <feFlood flood-color="#de5c44" flood-opacity="0.502"/>
      <feComposite operator="in" in2="blur-2"/>
      <feComposite in="SourceGraphic"/>
    </filter>
    <linearGradient id="linear-gradient-3" x1="0.5" x2="0.5" y2="1" gradientUnits="objectBoundingBox">
      <stop offset="0" stop-color="#9fbcfb"/>
      <stop offset="1" stop-color="#65a0fc"/>
    </linearGradient>
    <filter id="Illustration_flash">
      <feOffset dx="3" dy="3" input="SourceAlpha"/>
      <feGaussianBlur stdDeviation="1" result="blur-3"/>
      <feFlood flood-color="#fff" flood-opacity="0.502" result="color-2"/>
      <feComposite operator="out" in="SourceGraphic" in2="blur-3"/>
      <feComposite operator="in" in="color-2"/>
      <feComposite operator="in" in2="SourceGraphic"/>
    </filter>
  </defs>
  <g id="Header_Right_illustration" transform="translate(-2367 -184)" clip-path="url(#clip-path)">
    <g id="Header_Right_illustration-2" data-name="Header_Right_illustration" transform="translate(2342.944 163.055)">
      <g id="Illustration_Play" transform="matrix(0.927, -0.375, 0.375, 0.927, 0, 42.714)">
        <g data-type="innerShadowGroup">
          <path id="Path_26584-2" data-name="Path 26584" d="M48.163.017A48.146,48.146,0,1,1,.017,48.162,48.146,48.146,0,0,1,48.163.017Z" transform="matrix(0.978, 0.208, -0.208, 0.978, 20.054, 0.014)" fill="url(#linear-gradient)"/>
          <g transform="matrix(0.93, 0.37, -0.37, 0.93, 30.46, -11.17)" filter="url(#Path_26584)">
            <path id="Path_26584-3" data-name="Path 26584" d="M48.163.017A48.146,48.146,0,1,1,.017,48.162,48.146,48.146,0,0,1,48.163.017Z" transform="translate(-5.46 14.27) rotate(-10)" fill="#fff"/>
          </g>
        </g>
        <g transform="matrix(0.93, 0.37, -0.37, 0.93, 30.46, -11.17)" filter="url(#play)">
          <path id="play-2" data-name="play" d="M36.953,17.367,8.54.776A5.663,5.663,0,0,0,.021,5.694V38.975A5.663,5.663,0,0,0,8.54,43.942L36.953,27.3a5.712,5.712,0,0,0,0-9.935Z" transform="translate(30.77 36.86) rotate(-16)" fill="url(#linear-gradient-2)"/>
        </g>
      </g>
      <g data-type="innerShadowGroup">
        <path id="Illustration_flash-2" data-name="Illustration_flash" d="M7.182,0A7.175,7.175,0,0,0,2.6,12.7L27.048,32.944a7.175,7.175,0,0,0,10.035-.871L39.536,29.2l18.91,15.546a7.175,7.175,0,0,0,10.108-1l1.993-2.434,11.9,10.04A7.175,7.175,0,0,0,91.7,40.385L74.234,25.65a7.175,7.175,0,0,0-10.177.938l-2.051,2.5-18.8-15.456a7.175,7.175,0,0,0-10.016.886l-2.437,2.857-19-15.73A7.148,7.148,0,0,0,7.182,0Z" transform="translate(73.047 149.003) rotate(-79)" fill="url(#linear-gradient-3)"/>
        <g transform="matrix(1, 0, 0, 1, 24.06, 20.94)" filter="url(#Illustration_flash)">
          <path id="Illustration_flash-3" data-name="Illustration_flash" d="M7.182,0A7.175,7.175,0,0,0,2.6,12.7L27.048,32.944a7.175,7.175,0,0,0,10.035-.871L39.536,29.2l18.91,15.546a7.175,7.175,0,0,0,10.108-1l1.993-2.434,11.9,10.04A7.175,7.175,0,0,0,91.7,40.385L74.234,25.65a7.175,7.175,0,0,0-10.177.938l-2.051,2.5-18.8-15.456a7.175,7.175,0,0,0-10.016.886l-2.437,2.857-19-15.73A7.148,7.148,0,0,0,7.182,0Z" transform="translate(48.99 128.06) rotate(-79)" fill="#fff"/>
        </g>
      </g>
    </g>
  </g>
</svg>
